<svg width="90" height="28" viewBox="0 0 90 28" fill="none" xmlns="http://www.w3.org/2000/svg">
<g clip-path="url(#clip0)">
<path d="M36.8471 26.9739H30.1115L34.3211 0.937883H41.0574L36.8471 26.9739ZM24.4451 0.937883L18.0236 18.8456L17.2638 14.9894L17.2645 14.9908L14.9981 3.28213C14.9981 3.28213 14.724 0.937883 11.8029 0.937883H1.18707L1.0625 1.37873C1.0625 1.37873 4.30885 2.05847 8.10813 4.35465L13.96 26.9746H20.9779L31.6941 0.937883H24.4451ZM77.424 26.9739H83.6087L78.2163 0.937187H72.8018C70.3015 0.937187 69.6925 2.87749 69.6925 2.87749L59.6469 26.9739H66.6683L68.0725 23.1065H76.635L77.424 26.9739ZM70.0122 17.7641L73.5513 8.02075L75.5423 17.7641H70.0122ZM60.1736 7.19894L61.1348 1.60786C61.1348 1.60786 58.1687 0.472656 55.0767 0.472656C51.7342 0.472656 43.7965 1.94286 43.7965 9.09189C43.7965 15.8182 53.1127 15.9018 53.1127 19.4348C53.1127 22.9679 44.7563 22.3348 41.9986 20.1069L40.9972 25.9529C40.9972 25.9529 44.0048 27.4231 48.5999 27.4231C53.1964 27.4231 60.1306 25.028 60.1306 18.5093C60.1306 11.7398 50.7307 11.1095 50.7307 8.16631C50.7314 5.22243 57.2912 5.6006 60.1736 7.19894Z" fill="#2566AF"/>
<path d="M17.2645 14.9904L14.9981 3.28174C14.9981 3.28174 14.724 0.9375 11.8029 0.9375H1.18707L1.0625 1.37835C1.0625 1.37835 6.16489 2.44252 11.059 6.42968C15.7385 10.2406 17.2645 14.9904 17.2645 14.9904Z" fill="#E6A540"/>
</g>
<defs>
<clipPath id="clip0">
<rect width="89.7006" height="27.6647" fill="white" transform="translate(0 0.0292969)"/>
</clipPath>
</defs>
</svg>
