<svg width="49" height="37" viewBox="0 0 49 37" fill="none" xmlns="http://www.w3.org/2000/svg">
<path d="M9.54899 36.8036V34.3554C9.54899 33.4169 8.97476 32.8048 7.99036 32.8048C7.49816 32.8048 6.96494 32.9681 6.59579 33.4985C6.30867 33.0497 5.8985 32.8048 5.28325 32.8048C4.87309 32.8048 4.46292 32.9273 4.13479 33.3761V32.8865H3.27344V36.8036H4.13479V34.641C4.13479 33.9473 4.50394 33.6209 5.07817 33.6209C5.6524 33.6209 5.93952 33.9881 5.93952 34.641V36.8036H6.80087V34.641C6.80087 33.9473 7.21104 33.6209 7.74425 33.6209C8.31849 33.6209 8.60561 33.9881 8.60561 34.641V36.8036H9.54899ZM22.3052 32.8865H20.9106V31.7032H20.0493V32.8865H19.2699V33.6617H20.0493V35.4571C20.0493 36.3547 20.4184 36.8852 21.4028 36.8852C21.772 36.8852 22.1821 36.7628 22.4692 36.5996L22.2231 35.8651C21.977 36.0283 21.6899 36.0691 21.4848 36.0691C21.0747 36.0691 20.9106 35.8243 20.9106 35.4163V33.6617H22.3052V32.8865ZM29.6061 32.8048C29.1139 32.8048 28.7858 33.0497 28.5807 33.3761V32.8865H27.7194V36.8036H28.5807V34.6002C28.5807 33.9474 28.8678 33.5801 29.4011 33.5801C29.5651 33.5801 29.7702 33.6209 29.9343 33.6617L30.1804 32.8457C30.0163 32.8049 29.7702 32.8048 29.6061 32.8048ZM18.5727 33.2129C18.1625 32.9273 17.5883 32.8048 16.973 32.8048C15.9886 32.8048 15.3323 33.2945 15.3323 34.0698C15.3323 34.7226 15.8245 35.0898 16.6859 35.2123L17.0961 35.2531C17.5472 35.3347 17.7933 35.4571 17.7933 35.6611C17.7933 35.9467 17.4652 36.1507 16.891 36.1507C16.3167 36.1507 15.8656 35.9467 15.5784 35.7427L15.1683 36.3956C15.6195 36.722 16.2347 36.8852 16.85 36.8852C17.9984 36.8852 18.6547 36.3548 18.6547 35.6203C18.6547 34.9266 18.1215 34.5594 17.3011 34.437L16.891 34.3962C16.5218 34.3554 16.2347 34.2738 16.2347 34.0289C16.2347 33.7433 16.5218 33.5801 16.973 33.5801C17.4652 33.5801 17.9574 33.7841 18.2035 33.9065L18.5727 33.2129ZM41.46 32.8048C40.9678 32.8048 40.6396 33.0497 40.4346 33.3761V32.8865H39.5732V36.8036H40.4346V34.6002C40.4346 33.9474 40.7217 33.5801 41.2549 33.5801C41.419 33.5801 41.624 33.6209 41.7881 33.6617L42.0342 32.8457C41.8701 32.8049 41.624 32.8048 41.46 32.8048ZM30.4675 34.845C30.4675 36.0283 31.2878 36.8852 32.5593 36.8852C33.1336 36.8852 33.5437 36.7628 33.9539 36.4364L33.5437 35.7427C33.2156 35.9875 32.8875 36.1099 32.5183 36.1099C31.821 36.1099 31.3288 35.6203 31.3288 34.845C31.3288 34.1106 31.821 33.6209 32.5183 33.5801C32.8875 33.5801 33.2156 33.7025 33.5437 33.9474L33.9539 33.2537C33.5437 32.9273 33.1336 32.8048 32.5593 32.8048C31.2878 32.8048 30.4675 33.6617 30.4675 34.845ZM38.4247 34.845V32.8865H37.5634V33.3761C37.2763 33.0089 36.8661 32.8048 36.3329 32.8048C35.2254 32.8048 34.3641 33.6617 34.3641 34.845C34.3641 36.0283 35.2254 36.8852 36.3329 36.8852C36.9071 36.8852 37.3173 36.6812 37.5634 36.3139V36.8036H38.4247V34.845ZM35.2665 34.845C35.2665 34.1514 35.7176 33.5801 36.4559 33.5801C37.1532 33.5801 37.6454 34.1106 37.6454 34.845C37.6454 35.5387 37.1532 36.1099 36.4559 36.1099C35.7176 36.0691 35.2665 35.5387 35.2665 34.845ZM24.9713 32.8048C23.8228 32.8048 23.0025 33.6209 23.0025 34.845C23.0025 36.0691 23.8228 36.8852 25.0123 36.8852C25.5865 36.8852 26.1607 36.722 26.6119 36.3547L26.2018 35.7427C25.8736 35.9875 25.4635 36.1507 25.0533 36.1507C24.5201 36.1507 23.9869 35.9059 23.8638 35.2123H26.776C26.776 35.0898 26.776 35.0082 26.776 34.8858C26.817 33.6209 26.0787 32.8048 24.9713 32.8048ZM24.9713 33.5393C25.5045 33.5393 25.8736 33.8657 25.9557 34.4778H23.9048C23.9869 33.9473 24.356 33.5393 24.9713 33.5393ZM46.341 34.845V31.3359H45.4796V33.3761C45.1925 33.0089 44.7823 32.8048 44.2491 32.8048C43.1417 32.8048 42.2803 33.6617 42.2803 34.845C42.2803 36.0283 43.1417 36.8852 44.2491 36.8852C44.8233 36.8852 45.2335 36.6812 45.4796 36.3139V36.8036H46.341V34.845ZM43.1827 34.845C43.1827 34.1514 43.6339 33.5801 44.3722 33.5801C45.0694 33.5801 45.5616 34.1106 45.5616 34.845C45.5616 35.5387 45.0694 36.1099 44.3722 36.1099C43.6339 36.0691 43.1827 35.5387 43.1827 34.845ZM14.389 34.845V32.8865H13.5276V33.3761C13.2405 33.0089 12.8303 32.8048 12.2971 32.8048C11.1897 32.8048 10.3283 33.6617 10.3283 34.845C10.3283 36.0283 11.1897 36.8852 12.2971 36.8852C12.8713 36.8852 13.2815 36.6812 13.5276 36.3139V36.8036H14.389V34.845ZM11.1897 34.845C11.1897 34.1514 11.6408 33.5801 12.3791 33.5801C13.0764 33.5801 13.5686 34.1106 13.5686 34.845C13.5686 35.5387 13.0764 36.1099 12.3791 36.1099C11.6408 36.0691 11.1897 35.5387 11.1897 34.845Z" fill="black"/>
<path d="M31.2054 3.14258H18.2852V26.2373H31.2054V3.14258Z" fill="#FF5F00"/>
<path d="M19.104 14.6892C19.104 9.99682 21.3189 5.83488 24.7233 3.14186C22.2213 1.1833 19.063 0 15.6176 0C7.45525 0 0.851562 6.56934 0.851562 14.6892C0.851562 22.8091 7.45525 29.3784 15.6176 29.3784C19.063 29.3784 22.2213 28.1951 24.7233 26.2366C21.3189 23.5843 19.104 19.3816 19.104 14.6892Z" fill="#EB001B"/>
<path d="M48.6373 14.6892C48.6373 22.8091 42.0336 29.3784 33.8713 29.3784C30.4259 29.3784 27.2676 28.1951 24.7656 26.2366C28.211 23.5435 30.3849 19.3816 30.3849 14.6892C30.3849 9.99682 28.17 5.83488 24.7656 3.14186C27.2676 1.1833 30.4259 0 33.8713 0C42.0336 0 48.6373 6.61014 48.6373 14.6892Z" fill="#F79E1B"/>
</svg>
