<svg width="93" height="27" viewBox="0 0 93 27" fill="none" xmlns="http://www.w3.org/2000/svg">
<g clip-path="url(#clip0)">
<path fill-rule="evenodd" clip-rule="evenodd" d="M25.6343 0.869141V0.88049C25.6229 0.88049 22.0324 0.869141 21.0749 4.28503C20.1972 7.41722 17.7236 16.0648 17.6552 16.3031H16.9713C16.9713 16.3031 14.4408 7.46261 13.5517 4.27369C12.5942 0.857793 8.99223 0.869141 8.99223 0.869141H0.785156V26.8572H8.99223V11.4232H9.33419H9.67615L14.4636 26.8572H20.163L24.9504 11.4346H25.6343V26.8572H33.8414V0.869141H25.6343Z" fill="#4DB45E"/>
<path fill-rule="evenodd" clip-rule="evenodd" d="M55.6129 0.869141C55.6129 0.869141 53.2078 1.08476 52.0793 3.59278L46.266 16.3031H45.5821V0.869141H37.375V26.8572H45.1261C45.1261 26.8572 47.6452 26.6302 48.7737 24.1335L54.4731 11.4232H55.157V26.8572H63.3641V0.869141H55.6129Z" fill="#4DB45E"/>
<path fill-rule="evenodd" clip-rule="evenodd" d="M67.0117 12.6719V26.8575H75.2188V18.5731H84.1098C87.9853 18.5731 91.2682 16.1105 92.4878 12.6719H67.0117Z" fill="#4DB45E"/>
<path fill-rule="evenodd" clip-rule="evenodd" d="M84.1087 0.869141H65.8594C66.7713 5.81708 70.4986 9.78905 75.3203 11.0828C76.4146 11.3778 77.5658 11.5367 78.7513 11.5367H92.8173C92.9427 10.9466 92.9997 10.3451 92.9997 9.72096C92.9997 4.82976 89.0215 0.869141 84.1087 0.869141Z" fill="url(#paint0_linear)"/>
</g>
<defs>
<linearGradient id="paint0_linear" x1="65.8616" y1="6.20293" x2="92.9997" y2="6.20293" gradientUnits="userSpaceOnUse">
<stop offset="0.3" stop-color="#00B4E6"/>
<stop offset="1" stop-color="#088CCB"/>
</linearGradient>
<clipPath id="clip0">
<rect width="92.2156" height="25.988" fill="white" transform="translate(0.785156 0.869141)"/>
</clipPath>
</defs>
</svg>
