<svg width="24" height="23" viewBox="0 0 24 23" fill="none" xmlns="http://www.w3.org/2000/svg">
<path d="M11.3804 3.49086L12 4.39932L12.6196 3.49083C13.0333 2.88424 13.4969 2.37299 14.0003 1.96022C14.9892 1.14928 16.0915 0.75 17.2956 0.75C18.9265 0.75 20.4268 1.43876 21.5302 2.70776C22.625 3.96717 23.25 5.71511 23.25 7.64802C23.25 9.59784 22.5735 11.4098 21.0287 13.3863C19.6245 15.1828 17.5922 17.0226 15.1582 19.2221L15.1553 19.2247C14.3307 19.9699 13.3925 20.8177 12.4179 21.7213C12.296 21.8345 12.1471 21.891 12 21.891C11.8529 21.891 11.7043 21.8348 11.5829 21.7221C10.6158 20.8253 9.68356 19.9827 8.86329 19.2414L8.84133 19.2215C6.40764 17.0224 4.37528 15.1828 2.97112 13.3862C1.42643 11.41 0.75 9.59789 0.75 7.64782C0.75 5.71508 1.37497 3.9672 2.46992 2.7078C3.5734 1.43876 5.07347 0.75 6.70441 0.75C7.90847 0.75 9.01088 1.1493 9.99992 1.96022M11.3804 3.49086C10.9665 2.88408 10.5032 2.37301 9.99992 1.96022M11.3804 3.49086L9.99992 1.96022" stroke="#4D2612" stroke-width="1.5"/>
</svg>
