<svg width="46" height="46" viewBox="0 0 46 46" fill="none" xmlns="http://www.w3.org/2000/svg">
<circle cx="23.4906" cy="23.4906" r="17.6" fill="#F3EBE8"/>
<path d="M22.3147 28.9035C22.6007 28.8595 22.8867 28.8155 23.3047 28.8155C23.7447 28.8155 24.0307 28.8595 24.3387 28.9035C24.3607 24.9875 24.4487 19.8175 24.6247 15.9015H22.0067C22.1607 20.4115 22.2707 24.3935 22.3147 28.9035ZM23.3047 32.9295C24.3167 32.9295 24.6687 32.4895 24.6687 31.7635C24.6687 30.9935 24.3167 30.5975 23.3047 30.5975C22.3147 30.5975 21.9847 30.9935 21.9847 31.7635C21.9847 32.4895 22.3147 32.9295 23.3047 32.9295Z" fill="#826754"/>
<path d="M45 23C45 35.1503 35.1503 45 23 45C10.8497 45 1 35.1503 1 23C1 10.8497 10.8497 1 23 1" stroke="#826754"/>
</svg>
