<svg width="47" height="47" viewBox="0 0 47 47" fill="none" xmlns="http://www.w3.org/2000/svg">
<circle cx="24" cy="24" r="18" fill="#F3EBE8"/>
<path d="M27.6689 16H20.3311C17.9429 16 16 17.9429 16 20.3311V27.6691C16 30.0571 17.9429 32 20.3311 32H27.6691C30.0571 32 32 30.0571 32 27.6691V20.3311C32 17.9429 30.0571 16 27.6689 16V16ZM31.062 27.6691C31.062 29.5399 29.5399 31.062 27.6689 31.062H20.3311C18.4601 31.062 16.938 29.5399 16.938 27.6691V20.3311C16.938 18.4601 18.4601 16.938 20.3311 16.938H27.6691C29.5399 16.938 31.062 18.4601 31.062 20.3311V27.6691Z" fill="#826754"/>
<path d="M24 19.998C21.7944 19.998 20 21.7924 20 23.998C20 26.2037 21.7944 27.998 24 27.998C26.2056 27.998 28 26.2037 28 23.998C28 21.7924 26.2056 19.998 24 19.998ZM24 27.1404C22.2674 27.1404 20.8576 25.7308 20.8576 23.998C20.8576 22.2654 22.2674 20.8557 24 20.8557C25.7327 20.8557 27.1424 22.2654 27.1424 23.998C27.1424 25.7308 25.7327 27.1404 24 27.1404Z" fill="#826754"/>
<path d="M27.996 19C27.4446 19 26.9961 19.4486 26.9961 20C26.9961 20.5514 27.4446 21 27.996 21C28.5475 21 28.9961 20.5514 28.9961 20C28.9961 19.4485 28.5475 19 27.996 19ZM27.996 20.2743C27.8448 20.2743 27.7216 20.1512 27.7216 20C27.7216 19.8486 27.8448 19.7256 27.996 19.7256C28.1474 19.7256 28.2705 19.8486 28.2705 20C28.2705 20.1512 28.1474 20.2743 27.996 20.2743Z" fill="#826754"/>
<path d="M46 23.5C46 35.9264 35.9264 46 23.5 46C11.0736 46 1 35.9264 1 23.5C1 11.0736 11.0736 1 23.5 1" stroke="#826754"/>
</svg>
