<svg width="209" height="72" viewBox="0 0 209 72" fill="none" xmlns="http://www.w3.org/2000/svg">
<path d="M7.97407 60.8787H29.375L28.3961 65.4411H0.333445V63.7807L0.547251 63.5583C0.625103 63.479 8.29148 55.5321 14.4068 49.5756L14.9149 49.081C17.8638 46.2094 20.6504 43.4972 21.5348 42.2679C23.2098 39.9429 23.3406 37.3824 23.3406 36.6537C23.3406 35.6162 23.0521 34.6942 22.4576 33.8362C22.0051 33.1819 21.3872 32.5834 20.6207 32.0553C20.1295 31.7184 19.574 31.411 18.9706 31.1463C17.9505 30.6978 16.7973 30.3898 15.5426 30.2289C15.0168 30.1422 14.5205 30.0981 14.039 30.0944L13.8576 30.0933L13.6426 30.0993L13.3991 30.0944C11.2083 30.0944 9.26749 30.4737 7.63318 31.2207C6.95598 31.5058 6.34462 31.826 5.79508 32.183C5.56267 32.3326 5.34858 32.4886 5.14393 32.6466C4.45157 33.1927 3.87856 33.8055 3.44751 34.4581C3.16616 34.8829 2.95035 35.3317 2.78491 35.8308L2.61175 36.356H0L0.118495 35.4874C0.437343 33.1552 1.84182 31.17 4.29272 29.5838C7.01495 27.8221 10.421 26.9297 14.4154 26.9297C17.3987 26.9297 20.0683 27.4392 22.3506 28.4429C23.2324 28.8316 24.051 29.2821 24.7809 29.7836C25.9518 30.5887 26.9057 31.5163 27.6141 32.5424C28.5818 33.9421 29.0721 35.508 29.0721 37.1975C29.0721 38.6157 28.7335 40.009 28.0646 41.3405C27.4115 42.6431 26.2924 44.0516 24.7391 45.5268L24.3707 45.8805C23.4385 46.7787 21.2549 48.8813 18.7402 51.135C14.8545 54.618 10.2655 58.791 7.97407 60.8796V60.8787Z" fill="#4C2613"/>
<path d="M66.7932 55.8683V55.8754C66.7932 57.8772 66.1114 59.7551 64.7679 61.4553C63.4522 63.1219 61.5857 64.4726 59.2219 65.4695C56.8926 66.4549 54.2133 66.9552 51.2587 66.9552C47.5327 66.9552 44.536 66.5754 42.3544 65.8264C40.192 65.0811 38.1464 64.075 36.2742 62.8374L35.9316 62.611V57.2352H37.5697L37.7998 57.5403C38.7054 58.743 39.5918 59.7783 40.4359 60.6192C40.9803 61.1596 41.7928 61.7212 42.8538 62.2882L43.074 62.3981C44.6831 63.1751 46.4121 63.6277 48.2122 63.7404C49.5545 63.8254 51.1098 63.8712 52.5873 63.7917L53.2027 63.7536C53.3753 63.7416 53.5361 63.7267 53.6973 63.7089C54.0825 63.6703 54.4589 63.6265 54.8255 63.5707C55.9103 63.4041 56.9833 63.0546 58.0132 62.5309C59.3953 61.872 60.4786 61.0454 61.2534 60.0651C62.1112 58.9792 62.5286 57.842 62.5286 56.5878C62.5286 56.4956 62.5231 56.4055 62.5182 56.3148C62.5091 56.1447 62.4971 55.9905 62.4785 55.8396C62.3726 54.9764 62.0729 54.1944 61.5869 53.517C61.2935 53.0633 60.9498 52.6729 60.5459 52.3254C59.288 51.2367 57.7367 50.3537 55.9306 49.6994C55.2549 49.4547 53.8409 49.0104 51.7249 48.3788L49.6384 47.7597C47.077 47.0055 44.6293 46.0444 42.3636 44.9046C41.8641 44.6539 41.5327 44.4724 41.3503 44.3511C40.3128 43.655 39.3729 42.8479 38.5566 41.9497C37.4002 40.6795 36.707 39.1508 36.4984 37.4077C36.4729 37.1913 36.4531 36.9724 36.4403 36.7514C36.4311 36.5848 36.4231 36.4211 36.4231 36.2531C36.4231 34.2581 37.0468 32.4578 38.2772 30.9054C39.4859 29.3858 41.178 28.19 43.3075 27.3511C45.4041 26.5242 47.8432 26.1055 50.5546 26.1055C52.2977 26.1055 54.2562 26.3382 56.3768 26.7955C57.3099 26.9965 58.2298 27.236 59.1869 27.5297C60.288 27.8677 61.3216 28.2472 62.2581 28.6568L62.716 28.8563V34.2684H61.0537L60.8261 33.9327C60.0027 32.72 58.7693 31.6026 57.1611 30.6126C57.1539 30.6106 57.0944 30.5857 57.0171 30.5516C54.9847 29.6743 52.8269 29.229 50.6004 29.229C49.9249 29.229 49.311 29.2499 48.7282 29.2928C46.5252 29.4528 44.4501 30.2599 42.7262 31.6264C42.5794 31.7423 42.4583 31.8462 42.3744 31.93C42.2056 32.102 42.0539 32.2835 41.911 32.4684L41.8458 32.5465C41.132 33.4464 40.7833 34.4533 40.7833 35.6197C40.7833 35.7156 40.7885 35.8094 40.7936 35.9033C40.8031 36.0396 40.8143 36.1732 40.8294 36.3049C40.8752 36.6838 40.9619 37.0499 41.0853 37.3891C41.3389 38.206 41.8192 38.8803 42.5622 39.4859L42.7811 39.6534C43.1249 39.9499 43.4543 40.2026 43.7918 40.4276C43.8648 40.4777 43.9956 40.5464 44.1596 40.6317C44.8748 41.0908 45.609 41.4634 46.403 41.7774C47.7207 42.3035 49.5445 42.9366 51.9828 43.714C54.355 44.4561 56.4169 45.1625 58.107 45.8128C58.6085 46.0232 59.0642 46.2204 59.4869 46.413C61.4744 47.318 63.1911 48.5465 64.5868 50.0657C65.7823 51.3603 66.4978 52.9176 66.7136 54.693C66.7434 54.9263 66.7626 55.1633 66.7763 55.4037C66.7843 55.5546 66.7915 55.7097 66.7932 55.8683Z" fill="#4C2613"/>
<path d="M99.687 31.5657C97.3844 30.0433 94.5557 29.2714 91.2776 29.2714C88.001 29.2714 85.1703 30.0442 82.8637 31.5674C80.5504 33.1001 78.779 35.1786 77.6027 37.744C76.7274 39.6379 76.1653 41.7345 75.9303 43.9856H106.625C106.389 41.7371 105.827 39.6408 104.954 37.746C103.772 35.1795 101.999 33.1001 99.687 31.5657ZM107.15 52.3143L111.221 51.0421L110.845 52.3956C110.45 53.8106 109.915 55.1625 109.254 56.413C107.665 59.422 105.3 61.8531 102.223 63.6377C99.155 65.4188 95.4716 66.3218 91.2776 66.3218C87.013 66.3218 83.2944 65.4288 80.2244 63.6672C77.143 61.8938 74.7926 59.4698 73.2401 56.4607C71.698 53.4741 70.916 50.1239 70.916 46.5012C70.9189 45.8526 70.9469 45.2716 70.9881 44.696C71.2048 41.7296 71.961 38.9693 73.2393 36.4892C74.7937 33.4794 77.1421 31.0471 80.2204 29.2602C83.2916 27.4785 87.011 26.5752 91.2776 26.5752C95.5417 26.5752 99.2589 27.4785 102.33 29.2594C105.408 31.0442 107.756 33.4754 109.31 36.4884C110.59 38.9685 111.346 41.7296 111.562 44.696C111.604 45.2716 111.633 45.8526 111.634 46.4471L111.634 47.2124H75.8058C75.8934 50.1379 76.4967 52.8097 77.6007 55.2051C78.779 57.7685 80.5484 59.837 82.8617 61.3525C85.168 62.858 87.9999 63.6225 91.2776 63.6225C96.2012 63.6225 100.684 61.4513 102.768 59.4346C106.199 56.109 106.691 54.1358 106.984 52.9577L107.15 52.3143Z" fill="#4C2613"/>
<path d="M167.842 27.4159L148.839 65.4081H147.467L139.429 48.3958L130.919 65.4081H129.548L111.596 27.415H116.702L130.909 58.2337L137.7 44.7365L129.517 27.415H134.622L140.26 39.646L146.411 27.4159H149.926L141.962 43.336L148.83 58.2354L164.332 27.4159H167.842Z" fill="#4C2613"/>
<path d="M144.066 18.3427C150.136 9.35885 160.414 3.45215 172.072 3.45215C190.725 3.45215 205.845 18.5734 205.845 37.226C205.845 55.8789 190.725 71.0001 172.072 71.0001C167.714 71.0001 163.549 70.1747 159.724 68.6715" stroke="#4C2613" stroke-miterlimit="1.41421"/>
<path d="M161.196 14.9829L159.321 11.9023L158.687 12.2882L160.217 14.8009L159.231 15.4011L157.701 12.8881L157.072 13.271L158.601 15.784L157.62 16.3814L156.091 13.8684L155.457 14.2542L157.332 17.3348L161.196 14.9829Z" fill="#4C2613"/>
<path d="M163.851 13.9756C164.209 13.8434 164.461 13.6508 164.608 13.3935C164.754 13.1359 164.775 12.8648 164.669 12.5797C164.578 12.3333 164.437 12.1602 164.243 12.0508C164.049 11.9415 163.851 11.8991 163.649 11.93C163.845 11.7477 163.952 11.444 163.825 11.1011C163.625 10.5599 163.107 10.4059 162.488 10.6346L160.898 11.2231L162.15 14.605L163.851 13.9756ZM162.297 12.8643L163.172 12.5405C163.514 12.4137 163.781 12.4962 163.887 12.7812C163.992 13.0663 163.842 13.2979 163.499 13.425L162.624 13.7484L162.297 12.8643ZM161.809 11.5454L162.591 11.2557C162.881 11.1484 163.107 11.2239 163.195 11.4609C163.281 11.6928 163.157 11.8923 162.867 11.9996L162.084 12.2892L161.809 11.5454Z" fill="#4C2613"/>
<path d="M168.537 12.7878L168.404 12.1367L166.481 12.5288L166.295 11.6201L167.8 11.3135L167.669 10.6724L166.165 10.9789L166.026 10.2974L167.894 9.91677L167.761 9.26562L165.166 9.79427L165.886 13.3282L168.537 12.7878Z" fill="#4C2613"/>
<path d="M170.001 12.6452L171.661 10.2038L171.766 12.5662L172.502 12.5333L172.341 8.93066L171.703 8.959L170.063 11.3841L169.958 9.03713L169.217 9.07034L169.378 12.673L170.001 12.6452ZM169.786 7.96696C169.816 8.50734 170.227 8.82905 170.768 8.80501C171.308 8.78068 171.689 8.42348 171.67 7.88281L171.124 7.90714C171.129 8.13383 170.982 8.2901 170.74 8.30098C170.498 8.31157 170.342 8.16903 170.332 7.94263L169.786 7.96696Z" fill="#4C2613"/>
<path d="M174.279 12.6638L174.471 11.0939L176.087 11.2916L175.895 12.8615L176.627 12.9511L177.065 9.37138L176.333 9.28179L176.169 10.6216L174.553 10.4241L174.717 9.0843L173.981 8.99414L173.543 12.5739L174.279 12.6638Z" fill="#4C2613"/>
<path d="M181.451 14.3416L182.546 10.9056L181.839 10.6803L180.744 14.1164L181.451 14.3416ZM179.001 13.5611C179.409 13.6908 179.767 13.6862 180.075 13.5517C180.383 13.4171 180.59 13.175 180.698 12.8364C180.805 12.4975 180.777 12.1804 180.604 11.8924C180.432 11.5999 180.142 11.3887 179.735 11.2588L179.097 11.0555L179.458 9.92154L178.751 9.69629L177.656 13.1323L179.001 13.5611ZM178.906 11.6543L179.505 11.8452C179.917 11.9766 180.1 12.2511 179.989 12.5997C179.881 12.9383 179.573 13.0565 179.161 12.9251L178.562 12.7342L178.906 11.6543Z" fill="#4C2613"/>
<path d="M182.931 15.0807L185.61 13.8402L184.486 15.9205L185.134 16.2708L186.848 13.0981L186.286 12.7944L183.633 14.0308L184.75 11.9641L184.097 11.6114L182.383 14.7842L182.931 15.0807ZM185.153 10.958C184.9 11.4363 185.088 11.924 185.564 12.1813C186.04 12.4383 186.55 12.3278 186.812 11.8542L186.331 11.5946C186.219 11.7918 186.012 11.8496 185.799 11.7345C185.586 11.6195 185.526 11.4171 185.633 11.2176L185.153 10.958Z" fill="#4C2613"/>
<path d="M192.331 23.1577L194.415 21.8351L193.889 23.1697L194.11 23.5178L195.533 23.5968L193.449 24.9194L193.842 25.5371L196.886 23.6042L196.494 22.9866L194.672 22.9044L195.373 21.2206L194.978 20.5986L191.934 22.5315L192.331 23.1577Z" fill="#4C2613"/>
<path d="M194.477 26.8962L195.384 26.9108L195.959 28.323L195.32 28.9673L195.618 29.6971L198.394 26.8979L198.126 26.2393L194.184 26.1758L194.477 26.8962ZM197.399 26.9137L196.438 27.8725L196.039 26.8942L197.399 26.9137Z" fill="#4C2613"/>
<path d="M195.958 31.1374L198.822 30.4656L199.247 32.2765L199.894 32.1246L199.3 29.5918L195.789 30.4153L195.958 31.1374Z" fill="#4C2613"/>
<path d="M196.463 33.5432L197.33 33.8108L197.487 35.3277L196.693 35.7674L196.775 36.5513L200.223 34.6405L200.15 33.9333L196.383 32.7695L196.463 33.5432ZM199.263 34.3772L198.072 35.0289L197.964 33.9782L199.263 34.3772Z" fill="#4C2613"/>
<path d="M196.613 38.3764C196.589 38.8443 196.678 39.2256 196.88 39.5095C197.087 39.7934 197.348 39.9463 197.672 39.9629C198.109 39.9855 198.421 39.7333 198.568 39.3899C198.663 39.6478 198.898 39.8971 199.263 39.9159C199.567 39.9314 199.82 39.8206 200.023 39.5785C200.226 39.3412 200.336 39.0166 200.358 38.5999C200.381 38.1419 200.314 37.7412 200.151 37.3975L199.467 37.3623C199.629 37.7266 199.696 38.117 199.675 38.5286C199.653 38.9454 199.501 39.1955 199.26 39.1832C198.997 39.1695 198.873 38.9671 198.893 38.5813L198.921 38.0409L198.298 38.0091L198.275 38.4617C198.251 38.9402 198.076 39.2201 197.788 39.2053C197.459 39.1884 197.28 38.8595 197.308 38.3088C197.329 37.9024 197.498 37.4313 197.735 37.1287L197.015 37.0918C196.776 37.425 196.64 37.8514 196.613 38.3764Z" fill="#4C2613"/>
<path d="M196.379 41.3856L198.331 43.6001L196.016 43.1152L195.865 43.8362L199.395 44.5758L199.526 43.9504L197.585 41.7594L199.884 42.2411L200.036 41.515L196.506 40.7754L196.379 41.3856Z" fill="#4C2613"/>
<path d="M195.288 45.5326L196.759 46.1144L196.16 47.6285L194.689 47.0464L194.418 47.7316L197.772 49.0585L198.043 48.3733L196.787 47.8767L197.386 46.3629L198.641 46.8595L198.914 46.1697L195.561 44.8428L195.288 45.5326Z" fill="#4C2613"/>
<path d="M173.84 35.4514L208.291 1" stroke="#4C2613" stroke-miterlimit="1.41421"/>
</svg>
