<svg width="24" height="24" viewBox="0 0 24 24" fill="none" xmlns="http://www.w3.org/2000/svg">
<circle cx="12" cy="12" r="12" fill="#F3EBE8"/>
<path d="M9 9V6.3C9 6.13431 9.13431 6 9.3 6H14.7C14.8657 6 15 6.13431 15 6.3V9" stroke="#826754" stroke-width="0.8"/>
<path d="M15 15L15 18.2C15 18.3657 14.8657 18.5 14.7 18.5L9.3 18.5C9.13431 18.5 9 18.3657 9 18.2L9 15" stroke="#826754" stroke-width="0.8" stroke-linecap="round"/>
<path d="M9 17H8C6.89543 17 6 16.1046 6 15V11C6 9.89543 6.89543 9 8 9H16C17.1046 9 18 9.89543 18 11V15C18 16.1046 17.1046 17 16 17H15" stroke="#826754" stroke-width="0.8"/>
<path d="M10 15.5H14" stroke="#826754" stroke-width="0.7" stroke-linecap="round"/>
<path d="M10 17H14" stroke="#826754" stroke-width="0.7" stroke-linecap="round"/>
</svg>
