<svg width="426" height="412" viewBox="0 0 426 412" fill="none" xmlns="http://www.w3.org/2000/svg">
<path d="M337.569 92.9394C337.816 92.6593 338.064 92.3793 338.309 92.0992C340.015 89.7862 340.821 87.1775 340.724 84.2732C340.69 80.9247 339.858 77.5381 338.416 74.2777C338.114 73.6795 337.72 73.0001 337.324 72.319C335.927 69.7622 334.146 66.6989 331.991 63.3088C329.824 59.7407 328.241 57.0197 327.23 54.9677C326.625 53.7714 326.196 52.563 325.85 51.263C325.745 51.0037 325.651 50.9224 325.651 50.9224C325.525 50.3122 325.397 49.7037 325.271 49.0934L325.248 48.7425C325.067 47.2558 325.247 45.9212 325.79 44.7405C326.025 44.2841 326.262 43.8277 326.673 43.3609C326.754 43.2676 326.837 43.1742 326.918 43.0809C327.001 42.9875 327.084 42.8942 327.166 42.8008C328.4 41.4006 329.843 40.5154 331.671 40.1351L331.754 40.0418C332.011 39.9363 332.362 39.9156 332.715 39.8931C332.889 39.881 333.066 39.8706 333.24 39.8585C336.871 40.0711 340.214 41.3591 343.087 43.558C343.741 44.1337 344.489 44.7923 345.33 45.5322C348.037 47.9179 350.334 50.772 351.951 54.0203L352.044 54.1033C352.936 57.0439 353.197 59.7615 352.907 62.161L352.858 62.7816L354.914 64.5916L360.836 57.8685L360.44 57.1874C359.732 55.7335 358.929 54.1967 357.951 52.6702C357.076 51.403 356.203 50.1359 355.247 48.9621C353.126 46.0975 350.944 43.6773 348.796 41.7861C345.433 38.823 342.035 36.6569 338.513 35.3811C334.993 34.1036 331.622 33.7889 328.483 34.3404C325.344 34.8919 322.621 36.4737 320.482 38.9025C320.316 39.0892 320.152 39.2759 319.988 39.4627C319.824 39.6494 319.66 39.836 319.494 40.0227C317.789 42.3358 316.983 44.9445 316.985 47.7658C316.932 49.7106 317.231 51.6312 317.704 53.5415C317.808 53.7991 318.017 54.3159 318.33 55.0887C319.898 58.9576 321.9 62.7124 324.253 66.443L326.21 69.4943C328.165 72.5455 329.529 74.575 330.122 75.5967C331.705 78.3177 332.668 80.9921 333.011 83.6146C333.149 84.3994 333.111 85.1964 332.898 86.0037C332.717 87.3383 332.267 88.6003 331.456 89.7101C331.292 89.8968 331.128 90.0835 330.962 90.2702C330.881 90.3636 330.798 90.4569 330.717 90.5503C329.399 92.0456 327.698 93.0345 325.518 93.4373C323.515 93.828 321.304 93.7035 318.963 92.9705C317.174 92.5539 315.536 91.7759 314.065 90.8113C313.69 90.4811 313.223 90.0697 312.757 89.6583C312.57 89.494 312.383 89.3298 312.197 89.1656L311.45 88.5069C309.593 87.0375 307.724 85.3917 306.127 83.8169C303.968 81.7493 302.313 79.2962 301.174 76.634L301.07 76.3764C300.337 74.5698 299.98 73.0935 299.902 71.8644C299.781 69.9316 299.822 67.8122 300.018 65.3315L300.068 64.7109L298.012 62.9009L292.088 69.6239L292.216 70.2342C293.234 73.785 294.686 77.2217 296.57 80.5409C298.457 83.8618 301.781 87.6183 306.45 91.7327C310.093 94.943 313.949 97.3442 317.913 98.6805C321.879 100.017 325.695 100.394 329.091 99.7368C332.584 99.1629 335.481 97.569 337.621 95.1401C337.785 94.9534 337.95 94.7667 338.114 94.58L337.569 92.9394Z" fill="#F3EBE8"/>
<path d="M374.357 150.871C372.518 151.364 369.287 152.131 361.837 149.427C357.28 147.794 350.732 142.703 347.09 135.34C344.661 130.43 343.679 125.64 344.197 121.078C344.718 116.516 346.46 112.458 349.425 108.907C352.222 105.58 355.685 102.755 359.981 100.49L386.534 154.15L387.649 153.597C388.431 153.212 389.21 152.824 389.992 152.439C394.232 150.062 397.807 146.905 400.551 143.187C403.908 138.747 405.766 133.523 406.069 127.678C406.371 121.835 405.006 115.707 401.859 109.348C398.713 102.988 394.614 98.0735 389.784 94.7698C384.843 91.5198 379.562 89.8291 373.997 89.8049C369.376 89.7306 364.697 90.6572 360.237 92.5882C359.455 92.9737 358.674 93.3609 357.782 93.8018C352.426 96.4519 347.959 100.051 344.6 104.491C341.243 108.93 339.385 114.154 339.082 119.999C338.78 125.842 340.145 131.971 343.292 138.329C346.383 144.577 350.426 149.381 355.256 152.684C360.084 155.99 365.366 157.68 370.988 157.815C373.214 157.824 375.609 157.611 378.005 157.12L380.288 156.685L375.411 151.599L374.357 150.871ZM395.563 137.599C393.382 140.206 390.645 142.533 387.464 144.523L364.719 98.5627C368.232 97.2402 371.743 96.4761 375.138 96.3223C379.759 96.12 384.041 97.1953 387.983 99.5498C391.926 101.903 395.14 105.59 397.569 110.5C399.998 115.408 400.979 120.198 400.404 124.649C399.885 129.212 398.143 133.269 395.178 136.818L395.563 137.599Z" fill="#F3EBE8"/>
<path d="M422.551 254.033L371.984 226.312L397.272 215.762L423.414 230.026L423.623 224.181L403.589 213.248L424.323 204.651L424.627 196.193L395.279 208.84L373.17 196.713L425.516 174.927L425.818 166.469L361.305 194.17L361.224 196.409L389.076 211.606L360.234 224.022L360.152 226.262L422.453 260.258L422.551 254.033Z" fill="#F3EBE8"/>
<path d="M382.896 307.627C350.221 364.381 290.858 404.419 220.626 409.467C108.257 417.54 10.6125 333.005 2.53414 220.62C-5.54598 108.252 79.0014 10.6126 191.371 2.53941C217.625 0.637803 243.077 3.81869 266.77 11.2177" stroke="#F3EBE8" stroke-width="3" stroke-miterlimit="1.41421"/>
</svg>
