<?xml version="1.0" encoding="UTF-8" standalone="no"?><!DOCTYPE svg PUBLIC "-//W3C//DTD SVG 1.1//EN" "http://www.w3.org/Graphics/SVG/1.1/DTD/svg11.dtd"><svg width="100%" height="100%" viewBox="0 0 423 419" version="1.1" xmlns="http://www.w3.org/2000/svg" xmlns:xlink="http://www.w3.org/1999/xlink" xml:space="preserve" xmlns:serif="http://www.serif.com/" style="fill-rule:evenodd;clip-rule:evenodd;stroke-miterlimit:1.41421;"><path d="M49.733,161.277c-0.369,-0.059 -0.738,-0.118 -1.106,-0.175c-2.867,-0.203 -5.501,0.514 -7.903,2.151c-2.809,1.822 -5.224,4.337 -7.206,7.301c-0.343,0.575 -0.706,1.272 -1.069,1.971c-1.412,2.549 -3.046,5.693 -4.755,9.329c-1.853,3.74 -3.304,6.534 -4.495,8.487c-0.687,1.151 -1.478,2.16 -2.391,3.149c-0.162,0.227 -0.181,0.35 -0.181,0.35c-0.448,0.433 -0.893,0.867 -1.341,1.3l-0.284,0.207c-1.159,0.949 -2.382,1.512 -3.67,1.686c-0.511,0.046 -1.024,0.09 -1.638,-0.008c-0.122,-0.018 -0.246,-0.038 -0.368,-0.057c-0.123,-0.02 -0.247,-0.04 -0.369,-0.059c-1.844,-0.292 -3.364,-1.038 -4.664,-2.377l-0.123,-0.02c-0.227,-0.162 -0.432,-0.447 -0.64,-0.733c-0.104,-0.141 -0.207,-0.284 -0.311,-0.425c-1.764,-3.18 -2.466,-6.693 -2.147,-10.297c0.136,-0.86 0.291,-1.845 0.467,-2.951c0.565,-3.564 1.745,-7.032 3.623,-10.137l0.02,-0.123c2.006,-2.328 4.162,-4.003 6.344,-5.043l0.55,-0.291l0.428,-2.705l-8.849,-1.403l-0.363,0.699c-0.849,1.377 -1.717,2.877 -2.483,4.521c-0.602,1.417 -1.204,2.833 -1.684,4.269c-1.284,3.325 -2.159,6.464 -2.606,9.291c-0.702,4.427 -0.712,8.457 0.096,12.114c0.805,3.657 2.344,6.672 4.491,9.029c2.147,2.356 4.941,3.808 8.137,4.314c0.247,0.04 0.492,0.079 0.738,0.118c0.245,0.039 0.491,0.077 0.738,0.117c2.866,0.202 5.5,-0.515 7.882,-2.027c1.671,-0.996 3.134,-2.277 4.493,-3.7c0.162,-0.225 0.487,-0.679 0.972,-1.357c2.428,-3.395 4.528,-7.097 6.419,-11.081l1.529,-3.287c1.53,-3.285 2.514,-5.523 3.059,-6.571c1.45,-2.794 3.194,-5.04 5.225,-6.733c0.589,-0.537 1.283,-0.932 2.078,-1.184c1.225,-0.561 2.531,-0.858 3.903,-0.767c0.245,0.039 0.491,0.077 0.737,0.118c0.123,0.018 0.246,0.038 0.368,0.057c1.969,0.312 3.715,1.219 5.222,2.845c1.403,1.483 2.481,3.417 3.116,5.786c0.606,1.734 0.825,3.534 0.798,5.293c-0.078,0.493 -0.175,1.108 -0.273,1.722c-0.039,0.246 -0.077,0.491 -0.116,0.737l-0.157,0.984c-0.247,2.354 -0.636,4.814 -1.111,7.006c-0.59,2.931 -1.776,5.642 -3.414,8.029l-0.162,0.226c-1.134,1.586 -2.189,2.679 -3.186,3.403c-1.567,1.137 -3.379,2.236 -5.579,3.4l-0.551,0.29l-0.428,2.705l8.85,1.404l0.447,-0.435c2.454,-2.761 4.579,-5.828 6.373,-9.197c1.795,-3.371 3.188,-8.19 4.163,-14.336c0.761,-4.795 0.724,-9.338 -0.27,-13.402c-0.995,-4.065 -2.719,-7.489 -5.093,-10.006c-2.354,-2.642 -5.252,-4.236 -8.449,-4.743c-0.246,-0.039 -0.491,-0.077 -0.737,-0.116l-1.094,1.338Z" style="fill:#f3ebe8;fill-rule:nonzero;"/><path d="M78.963,99.189c1.401,1.289 3.779,3.607 5.484,11.346c1.06,4.724 0.266,12.98 -4.002,19.999c-2.846,4.68 -6.366,8.074 -10.497,10.079c-4.131,2.003 -8.491,2.704 -13.078,2.101c-4.308,-0.581 -8.548,-1.993 -12.76,-4.408l31.103,-51.158l-1.065,-0.645c-0.744,-0.454 -1.488,-0.905 -2.232,-1.359c-4.278,-2.308 -8.858,-3.638 -13.468,-3.964c-5.547,-0.458 -10.954,0.769 -16.053,3.643c-5.097,2.873 -9.541,7.308 -13.227,13.37c-3.687,6.062 -5.643,12.156 -5.847,18.004c-0.1,5.913 1.3,11.279 4.259,15.992c2.412,3.942 5.7,7.398 9.719,10.132c0.744,0.453 1.489,0.906 2.339,1.423c5.106,3.104 10.537,4.95 16.085,5.41c5.547,0.458 10.955,-0.769 16.053,-3.643c5.097,-2.873 9.542,-7.308 13.227,-13.37c3.622,-5.955 5.515,-11.943 5.719,-17.791c0.206,-5.848 -1.194,-11.213 -4.09,-16.034c-1.185,-1.885 -2.646,-3.793 -4.344,-5.554l-1.591,-1.696l-1.684,6.842l-0.05,1.281Zm-22.563,-10.805c3.369,0.447 6.8,1.512 10.184,3.133l-26.639,43.819c-2.998,-2.259 -5.523,-4.815 -7.471,-7.601c-2.645,-3.794 -4.03,-7.986 -4.152,-12.576c-0.124,-4.59 1.27,-9.279 4.116,-13.959c2.845,-4.679 6.365,-8.073 10.433,-9.97c4.13,-2.005 8.49,-2.706 13.075,-2.102l0.454,-0.744Z" style="fill:#f3ebe8;fill-rule:nonzero;"/><path d="M140.288,3.25l3.662,57.55l-22.45,-15.709l-1.95,-29.716l-5.049,2.953l1.494,22.774l-18.363,-12.909l-7.307,4.272l26.396,18.016l1.595,25.166l-46.427,-32.546l-7.306,4.273l57.938,39.655l1.934,-1.13l-2.077,-31.66l25.929,17.712l1.936,-1.131l-4.645,-70.82l-5.31,3.25Z" style="fill:#f3ebe8;fill-rule:nonzero;"/><path d="M206.784,8.046c65.429,-2.791 131.028,25.909 172.895,82.522c66.984,90.583 47.868,218.314 -42.725,285.311c-90.578,66.989 -218.311,47.86 -285.294,-42.723c-15.664,-21.156 -26.605,-44.355 -33.042,-68.327" style="fill:none;fill-rule:nonzero;stroke:#f3ebe8;stroke-width:3px;"/></svg>