<svg width="241" height="240" viewBox="0 0 241 240" fill="none" xmlns="http://www.w3.org/2000/svg">
<path fill-rule="evenodd" clip-rule="evenodd" d="M120.387 2C185.779 2 238.786 54.7594 238.786 119.857C238.786 184.945 185.779 237.715 120.387 237.715C55.0055 237.715 2 184.945 1.99999 119.857C1.99999 54.7594 55.0055 2 120.387 2V2Z" stroke="#826754" stroke-width="3" stroke-miterlimit="1.41421"/>
<path d="M28.9729 125.863L16.4258 127.662L16.798 130.231L27.0323 128.763L27.6108 132.76L17.3765 134.227L17.7457 136.779L27.98 135.312L28.5554 139.291L18.3211 140.758L18.6934 143.328L31.2395 141.528L28.9729 125.863Z" fill="#826754"/>
<path d="M29.3401 115.891C29.3924 114.558 29.1087 113.482 28.4699 112.664C27.8321 111.846 26.979 111.415 25.9116 111.374C24.9881 111.338 24.2366 111.561 23.6199 112.043C23.0032 112.524 22.5998 113.104 22.4277 113.801C22.0988 112.921 21.2587 112.167 19.974 112.117C17.9479 112.039 16.7487 113.507 16.6582 115.814L16.4258 121.74L29.0916 122.231L29.3401 115.891ZM23.639 119.422L23.7668 116.161C23.816 114.882 24.4438 114.131 25.5112 114.172C26.5796 114.214 27.1279 115.012 27.0776 116.29L26.9498 119.55L23.639 119.422ZM18.6984 119.23L18.8131 116.313C18.8553 115.231 19.4056 114.603 20.2919 114.638C21.1611 114.671 21.642 115.339 21.5998 116.421L21.4851 119.338L18.6984 119.23Z" fill="#826754"/>
<path d="M31.6444 99.1199L29.3476 98.6952L28.0881 105.448L24.8829 104.855L25.8678 99.5735L23.6072 99.1559L22.6213 104.438L20.2179 103.993L21.4412 97.4353L19.1445 97.0107L17.4453 106.121L29.908 108.425L31.6444 99.1199Z" fill="#826754"/>
<path d="M33.1169 94.1351L27.293 85.5862L35.1481 88.2923L35.9941 85.8556L24.0154 81.7294L23.281 83.8426L29.0777 92.3054L21.274 89.6173L20.4209 92.071L32.4006 96.1973L33.1169 94.1351ZM17.5547 88.7941C19.3575 89.396 20.943 88.4736 21.5647 86.6849C22.1864 84.8962 21.5134 83.1946 19.7227 82.5587L19.0949 84.3644C19.8414 84.6408 20.1603 85.3228 19.8816 86.124C19.604 86.9243 18.936 87.2478 18.1824 86.9884L17.5547 88.7941Z" fill="#826754"/>
<path d="M38.7399 80.2165L33.8486 77.5866L36.5679 72.5741L41.4592 75.204L42.6895 72.9366L31.5367 66.9396L30.3054 69.208L34.4804 71.4524L31.7611 76.4649L27.5861 74.2205L26.3477 76.504L37.5005 82.501L38.7399 80.2165Z" fill="#826754"/>
<path d="M53.328 58.921L43.4147 51.0562L41.7899 53.0872L51.7033 60.951L53.328 58.921ZM47.6973 65.9556C48.6339 64.7858 49.0665 63.608 49.0112 62.4343C48.9548 61.2605 48.4186 60.281 47.4418 59.5059C46.4639 58.7307 45.3865 58.4292 44.2245 58.6366C43.0485 58.8339 41.9921 59.5169 41.0555 60.6866L39.5877 62.5194L36.3161 59.9245L34.6914 61.9546L44.6048 69.8184L47.6973 65.9556ZM41.3161 63.8904L42.6923 62.1699C43.64 60.9861 44.7708 60.7307 45.7768 61.5279C46.7537 62.3031 46.7557 63.4578 45.808 64.6416L44.4317 66.3622L41.3161 63.8904Z" fill="#826754"/>
<path d="M57.5468 54.9074L56.7068 44.6119L62.2047 50.8172L64.1474 49.1117L55.7621 39.6484L54.0781 41.1266L54.9362 51.334L49.4745 45.1697L47.5188 46.8863L55.904 56.3506L57.5468 54.9074ZM46.6445 42.6299C47.9161 44.038 49.7521 44.012 51.1777 42.7591C52.6042 41.5072 52.8587 39.6964 51.6153 38.2653L50.1757 39.5292C50.6888 40.1361 50.6284 40.8862 49.9906 41.4471C49.3527 42.0069 48.6113 41.9609 48.0842 41.366L46.6445 42.6299Z" fill="#826754"/>
<path d="M74.235 42.4501L70.1596 34.8276L74.6948 37.0189L75.9745 36.3419L76.6334 31.3975L80.7088 39.0199L82.9784 37.8171L77.0227 26.6774L74.7521 27.8802L73.9755 34.2147L68.2623 31.3194L65.9766 32.5312L71.9333 43.6699L74.235 42.4501Z" fill="#826754"/>
<path d="M87.9062 35.8655L88.1758 32.7027L93.2673 31.0342L95.3709 33.4198L98.0026 32.5575L88.8568 22.1929L86.4836 22.9701L85.3086 36.7158L87.9062 35.8655ZM88.6717 25.6691L91.8025 29.2556L88.2764 30.4113L88.6717 25.6691Z" fill="#826754"/>
<path d="M103.161 31.6687L101.411 21.5234L107.854 20.4228L107.458 18.1303L98.4453 19.6707L100.59 32.1084L103.161 31.6687Z" fill="#826754"/>
<path d="M111.72 30.4029L112.823 27.4254L118.176 27.162L119.569 30.0173L122.336 29.8811L116.282 17.4724L113.786 17.5946L108.988 30.5371L111.72 30.4029ZM115.176 20.7754L117.239 25.0599L113.53 25.2421L115.176 20.7754Z" fill="#826754"/>
<path d="M128.708 30.8288C130.348 30.991 131.701 30.7436 132.731 30.0846C133.764 29.4086 134.343 28.5233 134.456 27.3936C134.609 25.8683 133.775 24.7355 132.595 24.1657C133.515 23.8762 134.429 23.097 134.557 21.8231C134.663 20.7655 134.316 19.8611 133.499 19.11C132.7 18.3608 131.579 17.9242 130.12 17.78C128.516 17.6207 127.099 17.789 125.864 18.3008L125.626 20.6864C126.933 20.1816 128.314 20.0104 129.755 20.1526C131.215 20.2978 132.068 20.8707 131.984 21.7139C131.892 22.6293 131.161 23.0279 129.81 22.8937L127.917 22.7064L127.701 24.8777L129.287 25.034C130.963 25.2002 131.916 25.8562 131.816 26.8607C131.701 28.0085 130.516 28.5794 128.588 28.3891C127.164 28.2479 125.538 27.5798 124.516 26.7005L124.266 29.2113C125.396 30.1027 126.87 30.6465 128.708 30.8288Z" fill="#826754"/>
<path d="M139.289 32.1009L147.345 25.5911L145.312 33.6142L147.822 34.2441L150.923 22.0088L148.746 21.462L140.774 27.9377L142.794 19.9667L140.266 19.3318L137.164 31.5671L139.289 32.1009Z" fill="#826754"/>
<path d="M153.71 36.4513L155.918 31.3727L161.169 33.6351L158.962 38.7138L161.338 39.7373L166.373 28.1568L163.995 27.1323L162.112 31.4668L156.86 29.2054L158.744 24.8699L156.351 23.8393L151.316 35.4208L153.71 36.4513Z" fill="#826754"/>
</svg>
