<svg width="47" height="47" viewBox="0 0 47 47" fill="none" xmlns="http://www.w3.org/2000/svg">
<circle cx="24" cy="24" r="18" fill="#F3EBE8"/>
<g clip-path="url(#clip0)">
<path d="M33.837 28.2568C33.3627 27.7317 32.8268 27.2629 32.3085 26.8095C32.1264 26.6501 31.938 26.4853 31.7566 26.3217C31.7565 26.3217 31.7565 26.3216 31.7564 26.3216C31.5124 26.1017 31.3929 25.9457 31.3805 25.8304C31.3682 25.7171 31.452 25.549 31.6448 25.3005C31.9331 24.9268 32.2404 24.5525 32.5377 24.1905C32.8019 23.8687 33.0751 23.5359 33.3369 23.2012L33.3957 23.1261C33.9065 22.473 34.4347 21.7976 34.7178 20.9747C34.7986 20.7387 34.8826 20.3895 34.6801 20.083C34.4775 19.7764 34.102 19.6855 33.8374 19.6439C33.7081 19.6234 33.5855 19.6217 33.4713 19.6217L30.1576 19.619C29.5847 19.6102 29.1872 19.861 28.9706 20.3647C28.7973 20.767 28.5925 21.2332 28.3553 21.6755C27.9016 22.5293 27.3249 23.5126 26.4891 24.332L26.452 24.3685C26.3951 24.4246 26.3021 24.5163 26.2544 24.5374C26.1638 24.4848 26.0594 24.1842 26.0641 24.0267C26.0643 24.0228 26.0643 24.019 26.0643 24.0151L26.0614 20.4784C26.0614 20.4604 26.06 20.4424 26.0574 20.4246C25.9831 19.92 25.8382 19.4142 24.9736 19.2566C24.9459 19.2515 24.9177 19.249 24.8895 19.249H21.4425C20.794 19.249 20.451 19.5233 20.176 19.8207C20.0964 19.9074 19.8849 20.1377 19.9926 20.4191C20.1017 20.7039 20.4265 20.7607 20.5332 20.7794C20.9088 20.8452 21.1031 21.0413 21.1632 21.4162C21.2821 22.1447 21.2966 22.924 21.2091 23.8674C21.1847 24.1208 21.1393 24.3133 21.0661 24.4734C21.0458 24.5177 21.028 24.5452 21.0155 24.5614C20.9957 24.554 20.9648 24.5398 20.9221 24.5128C20.6581 24.3459 20.4592 24.0866 20.2668 23.8358C19.4984 22.8337 18.852 21.7269 18.2906 20.4518C18.0593 19.9292 17.6247 19.6373 17.0674 19.6298C16.0057 19.6135 15.0238 19.6139 14.0666 19.631C13.6151 19.6383 13.2985 19.7696 13.1254 20.0213C12.9521 20.2735 12.9584 20.5951 13.1443 20.9772C14.4729 23.7062 15.6793 25.6914 17.0558 27.4143C18.0251 28.6272 19.0007 29.4691 20.1262 30.0639C21.3088 30.6888 22.6424 30.9951 24.1896 30.9951C24.3656 30.9951 24.5446 30.9911 24.726 30.9831C25.6805 30.9429 26.0689 30.5922 26.1113 29.7335C26.1351 29.2796 26.1897 28.912 26.3795 28.5925C26.4325 28.5031 26.4924 28.4431 26.5396 28.4322C26.5898 28.4206 26.6788 28.449 26.7777 28.5083C26.9586 28.6168 27.1143 28.764 27.2424 28.8931C27.3722 29.0244 27.5034 29.16 27.6303 29.2911C27.9005 29.5703 28.1798 29.859 28.4725 30.1344C29.1345 30.7577 29.8976 31.0435 30.7416 30.9837L33.7742 30.985C33.7743 30.985 33.7743 30.985 33.7744 30.985C33.784 30.985 33.7936 30.9847 33.8033 30.9841C34.1531 30.9626 34.4555 30.7837 34.6331 30.4932C34.8469 30.1434 34.8437 29.7003 34.6243 29.3075C34.3953 28.8991 34.0982 28.5476 33.837 28.2568ZM33.8766 30.0987C33.8348 30.1671 33.7832 30.1796 33.7566 30.1825L30.7247 30.1812C30.7246 30.1812 30.7245 30.1812 30.7244 30.1812C30.7124 30.1812 30.7004 30.1817 30.6885 30.1826C30.0912 30.2286 29.5835 30.0346 29.0925 29.5724C28.814 29.3103 28.5415 29.0288 28.278 28.7564C28.1496 28.6238 28.0169 28.4865 27.8835 28.3516C27.7181 28.1848 27.5136 27.993 27.2509 27.8354C26.8575 27.5995 26.5315 27.6067 26.3274 27.6542C26.1254 27.7012 25.8382 27.8354 25.6178 28.2069C25.3323 28.6876 25.2693 29.2061 25.2437 29.696C25.2289 29.9956 25.174 30.0748 25.1511 30.0949C25.1211 30.1213 25.0207 30.1676 24.6859 30.1817C23.0771 30.2516 21.7269 29.9855 20.5577 29.3675C19.5405 28.83 18.6499 28.0579 17.7549 26.9379C16.4165 25.2628 15.2389 23.3231 13.9367 20.6484C13.8895 20.5515 13.8749 20.491 13.8707 20.4586C13.9039 20.4486 13.9688 20.4353 14.0826 20.4334C15.0302 20.4164 16.0018 20.416 17.0539 20.4322C17.198 20.4341 17.362 20.4741 17.4862 20.7547C18.0728 22.0871 18.7504 23.2467 19.558 24.2997C19.7723 24.5792 20.0392 24.9271 20.4314 25.175C20.7907 25.4022 21.0822 25.3914 21.2635 25.3423C21.445 25.2932 21.6968 25.1566 21.8664 24.7857C21.9758 24.5467 22.0419 24.2775 22.0747 23.9374C22.1682 22.9282 22.1516 22.0891 22.0225 21.2977C21.9315 20.7307 21.6145 20.3211 21.1152 20.112C21.2039 20.0693 21.3038 20.0516 21.4426 20.0516H24.8445C25.0359 20.0912 25.0738 20.1378 25.0868 20.1537C25.1419 20.2214 25.1735 20.3816 25.1927 20.5067L25.1956 24.0108C25.1879 24.3468 25.3647 25.0918 25.9665 25.2961C25.9714 25.2978 25.9764 25.2993 25.9814 25.3008C26.5293 25.4662 26.8917 25.109 27.0862 24.917L27.1209 24.883C28.0364 23.9854 28.6529 22.9367 29.1345 22.0305C29.3855 21.5626 29.5982 21.0785 29.7779 20.6613C29.8679 20.4521 29.9497 20.4176 30.1451 20.4214C30.1477 20.4215 30.1504 20.4215 30.1531 20.4215L33.4711 20.4242C33.5482 20.4242 33.6288 20.425 33.6913 20.4349C33.8493 20.4598 33.9145 20.4901 33.9359 20.5026C33.9381 20.5259 33.9376 20.5927 33.8898 20.7323C33.6492 21.4321 33.1841 22.0267 32.6917 22.6562L32.6329 22.7315C32.377 23.0585 32.1069 23.3875 31.8457 23.7057C31.5446 24.0724 31.2333 24.4515 30.9382 24.8341C30.3073 25.6472 30.3627 26.1868 31.1501 26.8962C31.3362 27.0639 31.5269 27.2308 31.7114 27.3922C32.2344 27.8498 32.7285 28.2821 33.1694 28.7701C33.4003 29.0271 33.662 29.3358 33.8527 29.676C33.9522 29.8541 33.9278 30.015 33.8766 30.0987Z" fill="#826754"/>
</g>
<path d="M46 23.5C46 35.9264 35.9264 46 23.5 46C11.0736 46 1 35.9264 1 23.5C1 11.0736 11.0736 1 23.5 1" stroke="#826754"/>
<defs>
<clipPath id="clip0">
<rect width="21.9231" height="15" fill="white" transform="translate(13 17)"/>
</clipPath>
</defs>
</svg>
